<svg width="189" height="190" viewBox="0 0 189 190" fill="none" xmlns="http://www.w3.org/2000/svg">
<path d="M82.7345 0.820068L70.9575 28.8493C68.6021 29.5559 66.4823 30.7336 64.3624 31.9113L36.3332 20.1343L19.3744 37.0931L31.1514 65.1223C29.9737 67.4777 29.0315 69.362 28.0893 71.7174L0.0601501 83.4944V107.048L28.0893 118.825C29.0315 121.181 29.9737 123.065 31.1514 125.42L19.3744 153.45L36.3332 170.408L64.3624 158.631C66.4823 159.574 68.6021 160.751 70.9575 161.694L82.7345 189.723H106.288L118.065 161.694C120.185 160.751 122.541 159.809 124.661 158.631L152.69 170.408L169.649 153.45L157.872 125.42C158.814 123.301 159.991 120.945 160.934 118.825L188.963 107.048V83.4944L160.934 71.7174C160.227 69.5976 159.049 67.2422 157.872 65.1223L169.649 37.0931L152.69 20.1343L124.661 31.9113C122.541 30.9691 120.185 29.7914 118.065 28.8493L106.288 0.820068L82.7345 0.820068ZM94.5115 59.7049C114.061 59.7049 129.842 75.4861 129.842 95.0359C129.842 114.586 114.061 130.367 94.5115 130.367C74.9617 130.367 59.1806 114.586 59.1806 95.0359C59.1806 75.4861 74.9617 59.7049 94.5115 59.7049Z" fill="white"/>
</svg>
